<svg width="22" height="22" viewBox="0 0 22 22" fill="none" xmlns="http://www.w3.org/2000/svg">
<path d="M9.625 10.5833L12.4358 8.47501C12.9044 8.12426 13.1392 7.94793 13.1392 7.70835C13.1392 7.46876 12.9054 7.29339 12.4358 6.94168L11.1583 5.98335C10.4894 5.48214 10.155 5.23106 9.8895 5.36331C9.625 5.49556 9.625 5.91435 9.625 6.75001V10.5833ZM9.625 10.5833V14.4167C9.625 15.2533 9.625 15.6721 9.8895 15.8034C10.155 15.9356 10.4894 15.6855 11.1583 15.1833L12.4358 14.225C12.9044 13.8733 13.1392 13.6979 13.1392 13.4583C13.1392 13.2188 12.9054 13.0434 12.4358 12.6917L9.625 10.5833Z" stroke="black" stroke-width="2"/>
<path d="M7.21007 7.63556C7.13794 7.57245 7.05391 7.52441 6.96294 7.49426C6.87197 7.46411 6.77588 7.45246 6.68034 7.45999C6.5848 7.46752 6.49172 7.49408 6.4066 7.53811C6.32147 7.58214 6.24601 7.64275 6.18466 7.71638C6.1233 7.79001 6.07729 7.87516 6.04933 7.96683C6.02137 8.0585 6.01203 8.15484 6.02185 8.25017C6.03167 8.34551 6.06046 8.43791 6.10652 8.52196C6.15259 8.606 6.21499 8.67999 6.29007 8.73956L7.21007 7.63556ZM10.0851 10.0314L7.21007 7.63556L6.29007 8.73956L9.16507 11.1354L10.0851 10.0314Z" fill="black"/>
<path d="M7.20993 13.5311C7.06294 13.6477 6.87618 13.7022 6.68953 13.683C6.50288 13.6638 6.33115 13.5723 6.21103 13.4282C6.0909 13.284 6.03191 13.0986 6.04666 12.9116C6.0614 12.7245 6.14871 12.5506 6.28993 12.4271L7.20993 13.5311ZM10.0849 11.1353L7.20993 13.5311L6.28993 12.4271L9.16493 10.0312L10.0849 11.1353Z" fill="black"/>
<path d="M20.1667 10.5833C20.1667 15.1009 20.1667 17.3597 18.7627 18.7627C17.3607 20.1667 15.1009 20.1667 10.5833 20.1667C6.06575 20.1667 3.80696 20.1667 2.403 18.7627C1 17.3607 1 15.1009 1 10.5833C1 6.06575 1 3.80696 2.403 2.403C3.80792 1 6.06575 1 10.5833 1C15.1009 1 17.3597 1 18.7627 2.403C19.6961 3.33642 20.0085 4.64838 20.114 6.75" stroke="black" stroke-width="2" stroke-linecap="round"/>
</svg>
