<?xml version="1.0" encoding="utf-8"?>
<!-- Generator: Adobe Illustrator 27.5.0, SVG Export Plug-In . SVG Version: 6.00 Build 0)  -->
<svg version="1.1" id="Layer_1" xmlns="http://www.w3.org/2000/svg" xmlns:xlink="http://www.w3.org/1999/xlink" x="0px" y="0px"
	 viewBox="0 0 3205.018 1658.045" style="enable-background:new 0 0 3205.018 1658.045;" xml:space="preserve">
<g>
	<g>
		<path style="fill:#B98366;" d="M3142.99,1153.412c8.557-11.847,21.141-33.629,8.783-46.808c-6.98-7.445-21.626-5.548-31.486-4.124
			c-20.541,2.967-40.556,9.22-59.849,15.442c-36.006,11.61-70.606,25.676-106.109,38.187c-22.155,7.807-43.568,16.877-65.981,24.24
			c-19.099,6.274-51.561,18.675-72.697,10.599c3.214-6.881,11.148-12.553,17.509-17.396c10.46-7.966,21.782-15.175,32.905-22.521
			c18.445-12.182,40.463-25.009,51.801-42.417c6.929-10.639,7.585-25.826-10.221-28.386c-23.828-3.426-52.237,4.536-74.969,9.379
			c-10.93,2.329-21.903,4.569-32.815,6.937c-18.468,4.005-37.476,10.821-56.852,11.672c57.479-44.538,150.285-46.092,203.279-96.855
			c1.248-1.196,2.57-4.642,0.448-5.835c-29.143-16.402-71.583-13.157-105.14-11.467c-49.177,2.475-97.595,3.24-146.931,2.874
			c-9.579-0.071-19.135-0.042-28.707-0.088c34.889-17.793,64.246-42.04,102.972-54.872c2.715-0.9,7.859-7.767,1.851-7.596
			c-46.544,1.325-94.304,6.945-138.991,17.564c-39.103,9.292-78.715,21.917-119.846,23.341c4.861-1.919,10.042-3.489,14.567-5.016
			c14.87-5.017,30.059-9.419,45.183-13.913c15.537-4.616,31.102-9.216,46.362-14.41c11.783-4.011,24.13-8.229,34.459-14.416
			c6.154-3.687,15.081-10.45,10.604-17.316c-0.474-0.728-1.319-1.299-2.396-1.322c-11.279-0.241-22.264-1.958-33.407-3.201
			c-12.128-1.352-23.93-1.129-36.108-0.573c-25.31,1.155-50.581,2.741-75.838,4.474c-51.697,3.547-103.408,6.909-155.113,10.366
			c-98.145,6.564-196.43,14.63-291.973,34.541c-41.132,8.571-84.689,18.706-127.708,16.749c13.049-4.355,26.014-8.891,39.481-12.336
			c11.671-2.985,23.646-5.199,35.447-7.819c22.053-4.896,51.54-9.935,67.088-24.698c1.775-1.685,3.611-5.309-0.571-5.821
			c-65.744-8.048-133.091-2.304-198.578,4.618c-33.259,3.517-66.219,7.405-98.74,14.184c-32.753,6.828-64.847,15.497-97.104,23.669
			c-14.329,3.63-27.412,8.469-40.895,13.767c-8.503,3.342-17.717,7.216-27.24,9.364c37.538-19.763,67.228-48.181,102.274-70.567
			c2.041-1.304,5.406-6.067,0.53-6.402c-91.555-6.279-171.92,44.351-238.199,89.991c-13.736-16.368-34.101-28.317-50.963-42.457
			c-17.346-14.544-33.712-29.827-51.588-43.965c-16.873-13.345-35.413-26.675-57.516-34.059c-4.289-1.432-9.173,3.19-8.045,6.409
			c13.781,39.318,50.514,71.376,64.528,110.458c-38.476-19.385-74.111-42.863-118.285-53.477
			c-56.285-13.524-115.114-4.892-171.683,2.709c-16.394,2.203-32.792,4.188-49.082,6.858c-17.715,2.904-35.197,5.49-53.357,4.625
			c-4.282-0.204-12.501,7.07-6.217,8.915c58.638,17.211,124.759,22.935,180.637,46.186c-8.457-0.026-16.915-0.008-25.371,0.054
			c-0.137-0.021-0.275-0.043-0.412-0.064c-18.745-2.863-37.645-4.426-56.709-4.959c-40.018-1.118-80.192,1.927-119.531,7.776
			c-23.001,3.421-45.798,7.534-68.454,12.089c-118.395,13.896-235.069,37.678-348.041,69.26
			c-37.632,10.52-75.899,21.288-110.932,36.711c-31.675,13.945-61.224,30.763-92.811,44.836c-2.303,1.026-3.985,3.823-2.278,5.669
			c14.901,16.113,59.609,0.891,77.412-3.969c29.634-8.089,58.807-14.863,88.976-19.036c-56.973,12.226-113.42,27.008-154.286,63.323
			c-1.234,1.096-2.372,2.789-1.008,4.139c11.58,11.456,31.69,6.689,46.863,3.447c29.208-6.242,59.774-8.311,89.651-11.686
			c31.983-3.613,63.7-8.484,95.601-12.507c15.106-1.905,30.245-3.642,45.435-5.052c2.318-0.216,4.687-0.452,7.073-0.682
			c-8.535,1.329-17.013,2.99-25.433,4.652c-26.216,5.176-52.693,8.653-79.1,13.093c-60.074,10.103-119.372,23.394-178.872,35.455
			c-58.671,11.893-117.137,24.431-175.463,37.376c-22.969,5.098-46.01,9.678-69.109,14.357
			c-18.659,3.779-37.891,7.736-54.517,15.785c-2.748,1.332-5.093,5.927-0.544,6.579c26.619,3.815,51.504,12.119,77.035,18.973
			c23.611,6.339,47.892,10.192,72.385,13.601c53.98,7.513,109.058,11.573,163.851,9.367c52.733-2.124,106.174-5.234,158.398-11.571
			c22.996-2.79,45.314-7.094,67.92-11.351c19.975-3.762,41.986-7.754,62.417-4.055c-16.422,8.771-36.757,13.074-55.157,17.994
			c-14.983,4.005-29.539,8.721-44.039,13.728c-17.083,5.898-60.141,17.989-57.473,37.807c0.158,1.172,1.072,1.903,2.518,2.051
			c44.153,4.492,88.069-3.488,130.654-15.268c-52.75,23.12-103.667,49.01-156.858,71.681c-23.76,10.127-53.069,15.927-72.606,31.549
			c-14.922,11.932-10.085,26.311,8.303,33.165c21.094,7.862,45.929,7.938,68.633,9.96c50.819,4.526,101.822,6.859,152.959,6.453
			c99.326-0.791,198.281-11.117,295.103-28.759c55.122-10.045,109.656-22.027,164.438-33.189
			c30.58-6.23,62.573-10.595,93.625-16.937c-14.171,6.532-28.157,13.37-42.562,19.533c-16.564,7.087-42.835,16.068-47.802,32.339
			c-0.352,1.151,0.235,2.113,1.449,2.694c31.068,14.853,72.718-0.78,103.29-9.287c30.495-8.486,62.575-12.45,93.556-19.368
			c-40.572,19.725-78.487,43.187-107.332,73.668c-0.938,0.991-1.564,2.854-0.296,3.863c19.568,15.581,49.53,4.833,71.941-0.257
			c39.584-8.99,79.256-17.543,118.169-28.34c40.485-11.235,79.311-25.175,117.197-41.213c16.211-6.862,32.063-14.158,48.764-20.229
			c1.899-0.69,3.791-1.384,5.676-2.087c-11.191,14.526-17.468,32.512-24.41,47.652c-9.478,20.669-30.664,55.484-13.607,76.461
			c0.829,1.019,1.791,1.387,3.329,1.198c48.611-5.986,86.845-40.811,117.558-72.536c-6.809,19.133-8.587,41.82,21.485,37.545
			c18.326-2.606,32.647-16.671,42.522-28.315c7.345-8.661,14.456-18.945,17.997-29.632c7.421,11.641,14.75,23.368,24.384,33.903
			c13.409,14.663,31.163,26.298,48.851,37.459c33.297,21.009,74.195,44.592,118.245,44.887c3.697,0.025,6.582-2.317,7.547-5.042
			c6.263-17.68-10.21-38.941-19.493-54.134c-9.693-15.861-22.678-31.471-32.017-47.874
			c111.685,65.524,251.219,92.505,387.456,99.912c3.62,0.197,7.865-2.665,8.335-5.568c2.478-15.326-19.274-27.338-32.539-35.116
			c-1.736-1.018-3.547-1.939-5.31-2.92c17.659,6.377,36.014,11.368,54.534,15.878c38.936,9.482,78.762,15.182,119.32,17.571
			c74.953,4.416,149.846-0.925,224.352-7.323c39.597-3.4,211.145-18.048,156.452-79.443c-15.816-17.755-44.397-26.777-69.354-33.012
			c-10.513-2.626-21.229-4.742-32.018-6.604c38.031-0.825,75.998-2.975,113.699-7.33c49.877-5.761,99.59-15.163,148.643-24.43
			c42.791-8.084,86.462-18.146,123.699-37.555c11.146-5.809,28.524-14.67,29.932-26.62c1.237-10.497-12.56-15.472-22.985-18.082
			c-35.542-8.9-74.207-9.365-112.615-8.083c36.057-6.532,72.752-14.075,106.686-26.027c13.277-4.677,47.252-16.233,40.904-32.51
			c-6.96-17.844-55.693-10.57-71.551-9.353c-21.542,1.653-42.98,4.104-64.535,5.648c-11.925,0.854-28.966,3.173-41.699-0.064
			c57.591-36.738,125.509-61.977,177.251-104.771C3113.206,1185.961,3130.423,1170.811,3142.99,1153.412z M1244.625,1012.974
			c7.858-3.413,20.554-1.413,31.836,1.317C1265.852,1013.788,1255.24,1013.35,1244.625,1012.974z"/>
		<path style="fill:#987966;" d="M1555.997,1494.245c-13.134,16.707-25.16,34.34-35.399,52.929
			c-8.165,14.826-15.846,31.068-19.761,47.926c0.465,2.863,1.348,5.599,2.617,8.206c6.294-7.329,11.983-15.155,17-23.45
			C1536.598,1553.166,1546.478,1523.783,1555.997,1494.245z"/>
		<path style="fill:#987966;" d="M1179.788,1493.09c18.906-7.379,36.999-16.671,55.044-25.906
			c16.234-8.308,32.762-15.768,49.295-23.443c17.098-7.938,35.017-16.626,51.299-27.41c-11.59,3.69-23.085,7.67-34.483,11.922
			c-33.603,12.537-66.617,26.675-99.806,40.259c-25.852,10.581-54.552,18.093-76.198,36.469
			C1143.653,1505.845,1162.647,1499.78,1179.788,1493.09z"/>
		<path style="opacity:0.42;fill:#987966;" d="M2345.327,1611.956c-7.011-2.547-13.986-5.21-20.928-7.987
			c-24.907-9.964-49.561-21.077-72.42-35.196c-20.189-12.469-41.177-28.047-52.168-49.698c-0.763-1.505-0.237-3.976,1.746-4.291
			c31.447-4.985,63.248-7.021,95.054-7.816c25.57-0.639,51.331-1.235,76.899-0.276c19.665,0.737,39.28,2.454,58.936,3.386
			c21.056,0.999,42.277,1.363,63.262-0.976c17.211-1.918,34.739-5.854,49.879-14.528c-7.009-5.363-15.288-8.619-23.942-10.442
			c-19.252-4.056-39.304-2.543-58.838-2.803c-17.409-0.231-36.502-1.085-51.646-10.689c-1.499-0.951-2.052-3.291-0.59-4.587
			c12.693-11.254,26.991-20.459,42.16-28.011c51.992-25.885,112.096-32.826,162.227-62.6c-8.606-4.577-17.833-7.76-27.373-9.876
			c-42.162-9.347-86.054-1.451-128.303-10.092c-2.753-0.563-2.824-5.125,0-5.633c32.454-5.841,65.142-10.235,97.865-14.254
			c58.539-7.188,117.306-13.19,175.247-24.458c54.759-10.648,108.586-26.402,158.872-50.697c-22.615-0.447-45.23,0.828-67.727,3.148
			c-47.698,4.921-94.886,13.851-142.61,18.541c-47.149,4.633-95.068,4.766-141.237-7.057c-2.736-0.701-2.832-4.991,0-5.634
			c30.075-6.824,60.298-12.978,90.336-19.968c19.813-4.61,39.346-10.096,59.012-15.245c15.581-4.081,31.221-7.923,46.692-12.418
			c16.469-4.787,32.979-10.089,48.436-17.598c10.529-5.115,22.358-11.677,28.726-21.969c-13.971-10.87-30.163-18.285-47.354-22.455
			c-63.544-15.416-128.132,8.909-192.083,1.993c-2.586-0.281-3.757-2.939-2.066-4.987c10.446-12.643,22.287-24.03,35.08-34.278
			c42.998-34.446,94.138-55.953,141.95-82.642c-12.489-0.033-24.967,1.005-37.304,2.996c-57.382,9.26-110.492,35-162.988,58.719
			c-2.381,1.076-5.829-1.338-3.997-3.997c15.224-22.078,33.751-41.608,54.908-58.082c22.035-17.157,46.27-30.848,71.457-42.641
			c-1.513-0.004-3.027-0.007-4.539-0.014c34.89-17.793,64.246-42.04,102.973-54.872c2.715-0.9,7.86-7.767,1.85-7.596
			c-46.542,1.325-94.304,6.945-138.99,17.564c-39.102,9.292-78.715,21.917-119.845,23.341c4.86-1.919,10.042-3.489,14.565-5.016
			c14.871-5.017,30.059-9.42,45.184-13.913c15.538-4.617,31.101-9.216,46.362-14.41c11.783-4.011,24.13-8.229,34.459-14.416
			c6.154-3.687,15.081-10.45,10.604-17.316c-0.473-0.728-1.32-1.299-2.396-1.322c-11.278-0.241-22.265-1.958-33.407-3.201
			c-12.128-1.352-23.93-1.129-36.108-0.573c-25.31,1.155-50.581,2.741-75.838,4.474c-51.698,3.548-103.409,6.91-155.113,10.367
			c-98.144,6.564-196.43,14.63-291.973,34.541c-41.132,8.571-84.688,18.706-127.709,16.749c13.05-4.355,26.016-8.891,39.482-12.336
			c11.671-2.985,23.647-5.2,35.447-7.819c22.054-4.896,51.541-9.935,67.089-24.698c1.774-1.685,3.611-5.309-0.57-5.821
			c-65.745-8.048-133.092-2.304-198.579,4.618c-33.259,3.516-66.219,7.404-98.74,14.184c-32.753,6.828-64.847,15.497-97.104,23.669
			c-14.329,3.63-27.412,8.469-40.895,13.767c-8.504,3.342-17.717,7.216-27.239,9.364c37.537-19.763,67.228-48.181,102.273-70.567
			c2.04-1.304,5.405-6.067,0.53-6.402c-91.554-6.279-171.92,44.351-238.199,89.991c-13.736-16.368-34.102-28.317-50.963-42.457
			c-17.346-14.544-33.711-29.827-51.587-43.965c-16.874-13.347-35.415-26.676-57.518-34.06c-4.287-1.432-9.174,3.189-8.044,6.409
			c13.78,39.318,50.515,71.376,64.527,110.458c-38.475-19.385-74.111-42.863-118.283-53.477
			c-56.286-13.524-115.115-4.892-171.685,2.709c-16.392,2.203-32.791,4.188-49.081,6.857c-17.714,2.905-35.196,5.491-53.358,4.625
			c-4.281-0.204-12.5,7.07-6.215,8.915c58.637,17.21,124.757,22.935,180.636,46.186c-8.457-0.026-16.914-0.008-25.37,0.053
			c-0.137-0.021-0.277-0.042-0.414-0.063c-18.745-2.863-37.644-4.426-56.708-4.959c-40.018-1.118-80.192,1.927-119.531,7.776
			c-23.001,3.421-45.798,7.533-68.454,12.089c-60.682,7.122-120.901,16.878-180.413,28.914
			c41.743,4.18,83.281,11.632,124.534,18.357c3.344,0.545,2.397,5.727-0.778,5.738c-63.949,0.231-125.758,22.28-183.274,49.036
			c59.747-4.09,119.109-19.073,179.151-11.58c3.28,0.409,3.961,4.529,0.777,5.737c-14.704,5.578-30.047,9.245-44.957,14.21
			c-13.128,4.372-26.878,9.668-37.234,19.141c14.278,6.337,29.399,10.453,44.799,13.031c56.777,9.506,118.696-0.865,172.106,24.565
			c2.078,0.99,1.714,3.961,0,5.044c-21.889,13.84-47.24,21.386-72.298,27.106c-23.862,5.448-48.072,9.156-72.182,13.298
			c-24.369,4.187-48.126,10.042-72.158,15.758c-59.784,14.22-119.845,27.385-179.078,43.803
			c15.606,14.444,39.8,18.614,60.029,20.733c48.206,5.05,97.31-0.737,145.154-6.855c13.426-1.717,26.858-2.538,40.344-3.694
			c20.418-1.75,40.782-4.066,61.108-6.646c40.236-5.108,80.332-11.263,120.595-16.165c2.845-0.346,4.032,4.272,1.474,5.443
			c-26.41,12.093-55.764,20.57-78.844,38.769c16.435,1.746,33.114,0.716,49.419-1.805c66.997-10.357,129.107-43.112,197.017-48.593
			c3.141-0.253,3.63,3.944,1.475,5.443c-22.029,15.323-45.828,27.849-70.036,39.339c-21.71,10.305-43.805,19.764-65.695,29.67
			c-15.148,6.854-31.253,11.577-47.019,16.772c-18.058,5.952-36.192,12.04-53.364,20.278c-13.324,6.391-26.971,14.269-36.561,25.789
			c25.461,6.724,52.855,4.932,78.615,1.164c52.146-7.629,102.012-24.87,152.774-38.34c33.27-8.829,66.212-18.433,99.069-28.696
			c34.096-10.651,68.191-21.372,102.847-30.078c3.314-0.832,4.954,3.529,2.252,5.339c-6.983,4.673-14.037,9.237-21.172,13.673
			c-58.654,36.466-122.118,64.828-187.116,87.912c-66.854,23.743-135.601,41.922-204.954,56.694
			c-67.22,14.317-135.054,25.151-203.098,34.688c-72.378,10.145-145.148,18.633-218.261,20.706
			c-25.27,0.717-50.657,0.635-75.995-0.487c17.885,4.111,37.383,4.549,55.547,6.167c50.818,4.526,101.822,6.859,152.96,6.453
			c99.325-0.791,198.28-11.117,295.103-28.76c55.122-10.044,109.656-22.026,164.436-33.188
			c30.581-6.231,62.574-10.595,93.625-16.937c-14.171,6.532-28.156,13.37-42.561,19.533c-16.564,7.087-42.835,16.068-47.802,32.339
			c-0.284,0.928,0.066,1.722,0.84,2.303c13.253-9.019,26.819-17.58,40.656-25.686c50.656-29.673,104.656-53.676,160.18-72.652
			c54.326-18.566,110.402-32.37,167.317-40.059c3.111-0.42,5.288,3.494,2.251,5.339c-35.461,21.525-76.014,32.641-112.293,52.493
			c10.712-0.216,21.363-1.641,31.866-3.919c50.958-11.05,97.026-38.87,149.053-45.77c2.841-0.377,3.37,3.301,2.065,4.986
			c-20.107,25.957-47.773,45.166-75.923,61.477c-25.972,15.05-53.158,27.819-80.042,41.12
			c-30.304,14.992-59.464,32.142-89.355,47.93c-19.547,10.324-39.326,20.257-59.316,29.74c8.846-1.792,17.532-4.224,25.308-5.99
			c39.585-8.99,79.257-17.543,118.169-28.341c40.486-11.234,79.312-25.174,117.197-41.212c16.211-6.862,32.064-14.158,48.765-20.229
			c1.898-0.69,3.791-1.384,5.677-2.087c-8.937,11.599-14.734,25.386-20.245,38.185c23.544-32.498,51.873-61.885,86.635-81.882
			c2.133-1.227,5.097,0.821,4.291,3.299c-5.776,17.758-13.237,34.966-21.496,51.701c-17.201,34.857-38.092,68.106-62.368,98.475
			c-3.72,4.652-7.592,9.27-11.538,13.849c40.828-8.513,74.036-36.931,101.474-64.611c2.468-8.342,5.194-16.606,8.416-24.672
			c7.89-19.753,18.043-38.875,32.176-54.903c1.505-1.705,4.287-0.702,4.881,1.289c3.794,12.699,4.29,26.325,3.878,39.487
			c-0.698,22.253-4.151,44.481-8.978,66.3c12.318-5.581,22.302-15.729,29.75-24.511c7.345-8.661,14.457-18.945,17.998-29.632
			c6.424,10.08,12.875,20.177,20.72,29.556c-10.669-23.37-18.656-48.411-19.622-74.238c-0.1-2.676,3.193-3.648,4.986-2.066
			c18.372,16.211,36.746,32.422,54.986,48.782c29.975,26.885,60.862,53.146,85.297,85.361c6.424,8.469,12.528,17.164,18.531,25.932
			c8.707,1.788,17.573,2.863,26.583,2.923c3.697,0.025,6.582-2.317,7.546-5.042c6.262-17.68-10.21-38.941-19.493-54.134
			c-9.693-15.861-22.677-31.471-32.018-47.874c20.58,12.074,42.121,22.82,64.397,32.395c-16.947-14.1-32.604-29.779-45.474-47.691
			c-1.043-1.452-0.01-3.974,1.746-4.29c27.09-4.882,55.312,0.246,81.665,6.845c26.215,6.564,51.778,15.441,77.295,24.278
			c25.652,8.884,51.486,17.146,76.938,26.608c45.713,16.995,90.621,36.702,132.526,61.645c3.157-0.548,6.298-2.973,6.699-5.445
			c2.477-15.326-19.274-27.338-32.538-35.116c-1.737-1.018-3.548-1.939-5.312-2.921c17.661,6.378,36.015,11.369,54.536,15.879
			C2294.535,1604.366,2319.773,1608.864,2345.327,1611.956z M1244.625,1012.974c7.859-3.413,20.553-1.413,31.836,1.317
			C1265.853,1013.788,1255.239,1013.349,1244.625,1012.974z"/>
		<path style="opacity:0.42;fill:#987966;" d="M2507.083,1096.014c-36.796-23.788-80.224-35.822-122.566-45.341
			c-28.092-6.315-56.881-12.09-85.535-15.068c-20.182-2.098-41.994-1.886-61.294-8.977c51.689-18.067,109.549-14.776,163.365-18.496
			c25.444-1.758,50.993,0.266,76.465-0.901c23.719-1.085,48.655-3.988,68.941-17.34c2.006-1.321,5.606-6.155,2.755-8.514
			c-23.695-19.609-59.661-19.043-88.727-19.298c-40.26-0.353-80.425-2.235-120.707-1.574c-48.408,0.795-96.781,2.725-145.196,3.283
			c-47.614,0.547-95.213,2.09-142.778,4.302c-95.65,4.446-191.149,11.594-286.611,18.965
			c-96.403,7.443-192.91,13.247-289.415,19.188c-52.965,3.26-105.903,6.129-158.637,12.17c-3.691,0.423-7.396,0.868-11.109,1.317
			c-108.712,0.598-217.526,6.736-323.804,31.25c-58.32,13.453-115.631,32.148-169.644,58.077
			c-12.99,6.236-25.686,13.032-38.422,19.767c-7.678,4.06-15.857,8.916-18.264,17.88c-4.938,18.395,15.048,32.008,28.378,40.083
			c20.251,12.27,42.973,21.019,65.835,26.991c27.939,7.299,56.726,10.704,84.702,17.666c-29.725,6.421-56.452,22.9-85.2,33.62
			c-2.182,0.815-5.713,5.026-3.242,7.283c18.094,16.532,46.785,15.892,69.729,16.654c34.897,1.159,69.643,4.505,104.596,5.176
			c77.156,1.481,153.242-2.123,229.681-13.054c36.66-5.243,73.275-11.057,109.719-17.691c-6.803,4.269-13.673,8.434-20.357,12.892
			c-2.353,1.57-4.179,4.777-2.381,7.361c9.477,13.616,30.576,17.241,45.745,19.795c11.459,1.928,23.316,3.107,35.117,3.26
			c-10.938,6.145-21.43,13.396-32.959,18.272c-14.787,6.252-32.255,12.817-41.447,26.902
			c-15.989,24.502,20.052,41.355,37.534,49.087c37.432,16.555,76.524,28.122,116.78,35.437
			c44.271,8.044,90.514,13.867,135.563,13.86c44.036-0.007,90.201-6.718,133.607,3.286c-15.473,5.502-32.031,14.992-21.457,30.935
			c5.374,8.101,17.14,11.115,25.946,13.338c12.631,3.19,25.606,4.904,38.547,6.242c81.93,8.471,163.432,12.763,245.793,8.572
			c91.266-4.645,184.482-13.119,272.649-38.111c20.593-5.836,40.811-12.69,61.102-19.47c18.783-6.276,37.98-11.851,55.668-20.921
			c15.708-8.054,45.602-25.958,40.983-48.18c-3.956-19.046-31.457-27.596-47.106-33.047c-12.035-4.193-24.284-7.727-36.414-11.627
			c-7.28-2.339-15.273-4.63-22.208-8.317c14.748-11.066,36.184-14.906,52.566-22.109c22.978-10.101,45.546-21.495,66.417-35.499
			c32.734-21.961,65.449-54.167,64.754-96.573C2563.941,1142.365,2535.767,1114.558,2507.083,1096.014z"/>
		<path style="fill:#987966;" d="M554.876,1104.823c-30.512,8.63-61.541,20.01-87.784,38.273c15.915,3.06,32.799,0.108,48.31-3.662
			c16.671-4.05,32.877-9.719,49.141-15.124c16.173-5.376,32.564-9.991,48.964-14.619c24.58-6.937,49.533-14.229,72.767-25.044
			c-6.477,0.162-12.95,0.422-19.408,0.853C629.057,1088.029,591.341,1094.51,554.876,1104.823z"/>
		<path style="fill:#987966;" d="M749.502,1337.146c-19.368,3.924-38.563,8.448-57.997,12.081
			c-19.237,3.597-38.547,7.18-57.358,12.653c-13.299,3.869-27.68,8.624-38.914,17.228c20.345,1.511,40.826,0.689,61.067-1.733
			c44.611-5.337,88.426-17.621,130.449-33.285c18.742-6.986,37.246-14.755,55.368-23.331c-2.866,0.467-5.734,0.932-8.6,1.401
			C805.444,1326.751,777.388,1331.497,749.502,1337.146z"/>
		<path style="fill:#987966;" d="M1818.423,1590.871c-12.34-11.36-24.163-23.248-35.604-35.51
			c-22.222-23.82-44.415-49.716-72.674-66.628c4.527,16.698,9.405,33.306,14.117,49.956c3.051,4.155,6.232,8.245,9.792,12.138
			c13.41,14.662,31.163,26.298,48.852,37.459c21.649,13.659,46.525,28.367,73.379,37.096
			C1843.978,1613.539,1830.986,1602.437,1818.423,1590.871z"/>
		<path style="fill:#987966;" d="M2855.823,1214.426c-20.009,7.786-40.303,14.835-60.156,23.029
			c-15.588,6.435-31.468,13.519-45.527,23.074c26.638-1.95,52.861-8.051,78.295-16.086c47.627-15.046,93.087-36.606,137.488-59.29
			c15.625-7.983,31.063-16.489,45.667-26.246c-3.855,1.253-7.705,2.521-11.559,3.773c-25.118,8.158-50.225,16.364-75.121,25.18
			C2901.623,1196.107,2878.835,1205.471,2855.823,1214.426z"/>
		<path style="fill:#987966;" d="M2549.179,1432.491c25.336,4.828,51.766,3.236,77.195,0.123c25.55-3.128,50.767-8.35,76.082-12.918
			c13.686-2.468,27.475-4.303,41.181-6.67c15.122-2.613,30.188-5.551,45.186-8.804c24.373-5.287,48.535-11.466,72.487-18.371
			c-52.701,1.615-105.404,4.943-157.68,11.913C2651.282,1404.744,2599.24,1415.509,2549.179,1432.491z"/>
		<path style="fill:#987966;" d="M2261.105,1530.923c25.875,7.044,52.734,10.084,79.474,11.512
			c27.069,1.445,54.178,1.166,81.271,1.115c30.562-0.057,61.113-0.359,91.658-1.436c18.485-0.651,36.965-1.585,55.428-2.786
			c-45.836-4.772-91.624-10.065-137.62-13.059C2374.569,1522.577,2317.442,1522.743,2261.105,1530.923z"/>
		<path style="fill:#987966;" d="M2038.67,1578.693c-46.865-19.418-93.098-40.327-140.008-59.636
			c6.469,5.408,12.99,10.755,19.586,16.008c18.506,14.734,37.406,28.988,56.112,43.481c52.512,17.591,108.041,29.641,164.419,37.445
			C2104.849,1605.176,2071.554,1592.317,2038.67,1578.693z"/>
		<path style="fill:#987966;" d="M632.89,1428.093c-22.287,5.488-44.926,9.448-66.972,15.925
			c-11.055,3.249-22.066,7.017-32.303,12.359c-6.731,3.512-13.314,7.862-18.393,13.584c23.387,2.543,47.236-3.264,69.29-10.547
			c21.586-7.13,42.396-16.307,63.381-24.993c23.087-9.557,46.558-18.169,69.66-27.704c14.994-6.188,29.875-12.636,44.698-19.221
			c-19.917,5.099-39.572,11.248-59.065,17.734C679.886,1412.983,656.756,1422.217,632.89,1428.093z"/>
		<path style="fill:#987966;" d="M347.553,1271.016c-32.549,7.95-65,16.292-97.453,24.628c39.783-3.469,79.559-7.112,119.195-12.005
			c36.756-4.536,73.243-10.762,109.815-16.535c33.592-5.302,67.199-10.836,100.252-18.92c28.091-6.869,55.959-15.558,82.033-28.16
			c-35.125,1.342-70.168,4.535-104.993,9.293C486.015,1238.933,416.521,1254.171,347.553,1271.016z"/>
	</g>
	<g>
		<g>
			<g>
				<path style="fill:#EBE4DC;" d="M1643.615,816.986c-54.411,265.491-292.04,441.053-530.759,392.129
					c-238.72-48.925-388.13-303.809-333.719-569.3c54.411-265.491,323.501-594.558,562.22-545.634
					C1580.076,143.106,1698.027,551.495,1643.615,816.986z"/>
				<path style="fill:#BBA49D;" d="M1193.771,1221.599c-27.252,0-54.595-2.749-81.769-8.319
					c-240.632-49.317-391.821-306.955-337.031-574.32c27.173-132.585,108.821-283.097,213.077-392.798
					c117.334-123.456,243.095-178.898,354.167-156.148c111.055,22.763,204.875,123.224,264.184,282.876
					c52.697,141.866,68.553,312.362,41.38,444.951l-4.166-0.855l4.166,0.855c-26.525,129.432-96.806,241.85-197.903,316.537
					C1372.228,1191.747,1283.529,1221.599,1193.771,1221.599z M1294.123,93.71c-216.075,0-457.738,287.951-510.821,546.961
					c-53.847,262.768,94.372,515.901,330.411,564.279c114.257,23.423,231.849-4.074,331.114-77.411
					c99.397-73.441,168.516-184.031,194.622-311.408l0,0c56.916-277.722-72.42-671.359-298.944-717.785
					C1325.241,95.218,1309.739,93.71,1294.123,93.71z"/>
			</g>
			<path style="opacity:0.5;fill:#EDE9CF;" d="M1086.643,248.116c-31.092,33.184-58.138,70.338-80.743,109.774
				c-18.934,33.029-36.158,68.715-43.815,106.252c-2.89,14.172-3.85,28.234-1.502,42.548c2.502,15.241,8.152,32.454,21.954,41.123
				c11.828,7.429,26.585,6.838,39.693,3.692c17.644-4.235,34.181-12.604,49.682-21.845c34.953-20.832,66.683-47.392,95.914-75.576
				c10.679-10.296,21.172-20.889,30.751-32.226c6.261-7.409,11.605-15.539,16.857-23.682c8.907-13.809,17.062-28.136,23.974-43.052
				c13.539-29.215,22.927-61.947,18.468-94.373c-3.954-28.756-20.129-56.591-45.823-71.023
				c-11.725-6.586-24.653-10.068-37.867-11.243C1140.848,195.301,1111.933,221.122,1086.643,248.116z"/>
			<path style="opacity:0.5;fill:#EDE9CF;" d="M928.5,573.051c-3.096,1.792-5.944,4.091-8.371,6.458
				c-8.269,8.055-14.383,18.2-19.149,28.64c-5.079,11.127-8.703,23.076-10.005,35.263c-0.999,9.355-0.75,20.194,4.429,28.409
				c5.46,8.661,15.428,10.695,25.014,9.296c11.568-1.687,21.506-8.305,27.307-18.471c11.661-20.443,8.612-48.792-1.557-69.199
				C942.177,585.442,936.448,577.499,928.5,573.051z"/>
			<path style="opacity:0.38;fill:#D6D4BD;" d="M1341.358,94.181c-238.721-48.925-507.809,280.143-562.22,545.634
				c-54.412,265.491,94.998,520.375,333.719,569.3c238.717,48.924,476.347-126.638,530.758-392.129
				S1580.075,143.105,1341.358,94.181z M1355.114,525.323c-7.387,25.574-15.812,50.872-25.458,75.685
				c-10.391,26.722-22.357,52.918-35.715,78.282c-18.469,35.063-39.874,68.74-64.871,99.527
				c-24.901,30.669-53.653,58.689-86.802,80.365c-32.574,21.297-69.407,35.944-108.175,40.503
				c-40.54,4.766-81.876-2.483-115.674-26.217c-31.206-21.915-52.399-55.387-64.687-91.036
				c-12.893-37.407-16.698-77.658-13.309-116.966c3.51-40.697,12.573-80.834,25.035-119.685
				c13.453-41.944,30.892-82.58,51.387-121.553c20.942-39.822,45.104-77.981,72.175-113.921
				c26.298-34.917,55.438-67.807,87.659-97.377c15.483-14.209,31.711-27.661,48.693-40.062
				c10.729-8.791,22.188-16.592,34.526-22.991c4.559-2.739,9.163-5.407,13.827-7.974c1.244-0.685,2.479-0.403,3.357,0.303
				c32.268-11.9,67.988-11.908,100.755-1.182c25.528,8.355,48.249,23.084,65.425,43.827c16.77,20.256,27.396,45.008,33.707,70.374
				c7.058,28.376,9.199,57.813,8.679,86.983c-0.559,31.333-4.142,62.59-9.569,93.435
				C1370.76,465.891,1363.635,495.821,1355.114,525.323z"/>
			<path style="opacity:0.38;fill:#D6D4BD;" d="M1551.625,266.46c1.668,8.745,3.206,17.539,4.552,26.412
				c14.027,92.428,20.984,186.562,11.316,279.805c-7.459,71.943-25.108,143.68-53.781,210.161
				c-26.336,61.06-63.222,118.303-112.41,163.462c-51.533,47.314-115.035,79.034-183.445,93.282
				c-63.752,13.277-130.832,7.645-192.279-13.468c-61.494-21.129-118.16-57.83-159.078-108.758
				c-45.044-56.064-64.098-127.168-70.155-197.808c-4.798-55.954-1.122-112.322,7.766-167.796
				c-10.64,29.727-19.074,59.27-24.975,88.064c-54.412,265.491,94.998,520.375,333.719,569.3
				c238.717,48.924,476.347-126.638,530.758-392.129C1678.208,648.196,1643.109,421.673,1551.625,266.46z"/>
		</g>
		<g>
			<g>
				<path style="fill:#EBE4DC;" d="M2473.595,438.957c120.551,242.722,41.355,527.357-176.89,635.752
					c-218.245,108.395-492.894-0.498-613.445-243.22c-120.552-242.721-111.057-667.697,107.188-776.092
					C2008.692-52.998,2353.044,196.235,2473.595,438.957z"/>
				<path style="fill:#BBA49D;" d="M2116.792,1121.059c-54.823,0-110.577-10.756-165.015-32.339
					c-116.84-46.326-213.555-137.007-272.328-255.337c-60.202-121.217-88.512-290.094-73.878-440.723
					c16.467-169.516,81.453-290.642,182.981-341.068c101.54-50.426,237.318-29.017,382.332,60.297
					c128.863,79.36,246.313,203.962,306.519,325.175c121.4,244.437,41.185,532.192-178.811,641.453
					C2241.569,1106.84,2179.797,1121.059,2116.792,1121.059z M1906.087,34.132c-40.658,0-79.102,7.87-113.75,25.076
					c-207.093,102.857-231.372,516.482-105.271,770.391c57.839,116.446,152.963,205.664,267.847,251.215
					c114.734,45.496,235.441,41.97,339.897-9.913c215.785-107.172,294.259-389.828,174.978-630.049l0,0
					C2364.78,229.422,2108.47,34.132,1906.087,34.132z"/>
			</g>
			<path style="opacity:0.5;fill:#EDE9CF;" d="M1684.472,333.507c-4.076,45.29-2.518,91.219,3.943,136.214
				c5.411,37.686,13.805,76.41,30.878,110.706c6.447,12.947,14.346,24.621,25.008,34.455c11.353,10.471,26.402,20.557,42.616,18.893
				c13.894-1.426,25.159-10.976,33.553-21.525c11.298-14.199,19.179-30.973,25.707-47.798
				c14.721-37.935,23.377-78.398,29.063-118.603c2.078-14.688,3.827-29.495,4.396-44.327c0.374-9.693-0.42-19.39-1.293-29.04
				c-1.482-16.365-3.874-32.676-7.608-48.685c-7.315-31.358-20.065-62.932-43.54-85.741c-20.818-20.229-50.7-32.206-79.832-27.763
				c-13.295,2.027-25.626,7.241-36.763,14.449C1694.679,258.518,1687.787,296.665,1684.472,333.507z"/>
			<path style="opacity:0.5;fill:#EDE9CF;" d="M1759.869,686.93c-1.336,3.319-2.166,6.883-2.622,10.242
				c-1.557,11.438-0.131,23.197,2.54,34.359c2.845,11.896,7.345,23.543,13.823,33.948c4.972,7.988,11.839,16.377,20.978,19.664
				c9.634,3.463,18.741-1.07,25.436-8.073c8.078-8.451,11.836-19.783,10.149-31.367c-3.394-23.288-23.248-43.752-43.825-53.575
				C1778.275,688.275,1768.87,685.542,1759.869,686.93z"/>
			<path style="opacity:0.38;fill:#D6D4BD;" d="M1790.448,55.397c-218.245,108.395-227.739,533.371-107.188,776.092
				c120.552,242.721,395.199,351.614,613.445,243.219c218.244-108.395,297.441-393.03,176.889-635.751
				C2353.043,196.236,2008.692-52.997,1790.448,55.397z M2066.692,386.702c9.921,24.701,18.855,49.824,26.527,75.316
				c8.261,27.456,14.957,55.466,20.043,83.677c7.029,39.002,10.891,78.718,10.144,118.369
				c-0.745,39.499-6.154,79.279-18.936,116.767c-12.56,36.834-32.57,71.052-60.317,98.509
				c-29.014,28.712-66.053,48.445-107.298,50.546c-38.083,1.94-75.39-11.394-107.019-31.923
				c-33.187-21.542-60.964-50.921-82.49-83.986c-22.286-34.233-39.851-71.442-53.946-109.732
				c-15.218-41.335-26.489-84.095-34.33-127.425c-8.01-44.274-12.457-89.22-13.248-134.208
				c-0.769-43.704,1.948-87.564,9.138-130.701c3.455-20.729,7.963-41.319,13.712-61.547c3.043-13.532,7.273-26.733,13.057-39.372
				c1.906-4.966,3.893-9.902,5.988-14.795c0.558-1.306,1.705-1.844,2.831-1.827c18.104-29.243,46.25-51.237,78.676-62.955
				c25.262-9.13,52.233-11.51,78.539-5.735c25.685,5.64,49.296,18.605,69.885,34.709c23.03,18.017,42.838,39.899,60.384,63.207
				c18.848,25.036,35.265,51.874,49.976,79.524C2042.436,330.233,2055.246,358.205,2066.692,386.702z"/>
			<path style="opacity:0.38;fill:#D6D4BD;" d="M2062.206,61.729c6.698,5.865,13.323,11.848,19.846,18.012
				c67.95,64.206,131.38,134.108,181.161,213.541c38.408,61.287,68.66,128.686,86.988,198.728
				c16.833,64.332,23.002,132.15,12.037,198.017c-11.487,69.01-42.003,133.099-87.145,186.439
				c-42.068,49.707-98.399,86.562-159.821,107.749c-61.469,21.204-128.718,27.163-192.315,12.215
				c-70.009-16.455-128.795-60.76-177.053-112.702c-38.226-41.141-70.028-87.827-97.172-137.015
				c9.913,29.976,21.453,58.45,34.528,84.775c120.552,242.721,395.199,351.614,613.445,243.219
				c218.244-108.395,297.441-393.03,176.889-635.751C2396.952,284.643,2229.848,127.732,2062.206,61.729z"/>
		</g>
		<g>
			<g>
				<path style="fill:#EBE4DC;" d="M2101.31,613.02c263.17,64.714,429.34,309.003,371.151,545.634
					c-58.189,236.632-318.701,375.998-581.871,311.284c-263.169-64.714-581.502-346.421-523.314-583.053
					C1425.464,650.255,1838.14,548.306,2101.31,613.02z"/>
				<path style="fill:#BBA49D;" d="M2019.878,1489.973c-42.78,0-86.515-5.137-130.304-15.906
					c-131.426-32.318-278.645-119.768-384.197-228.219c-118.788-122.051-169.301-249.893-142.227-359.98
					c27.069-110.083,131.105-199.917,292.951-252.959c143.814-47.137,314.792-56.344,446.226-24.017
					c128.298,31.546,237.891,106.159,308.584,210.083c70.787,104.069,94.115,225.062,65.679,340.694
					C2427.626,1358.789,2236.02,1489.969,2019.878,1489.973z M1931.698,598.295c-91.059,0-186.892,14.493-272.947,42.697
					c-158.956,52.09-260.998,139.781-287.345,246.911c-26.343,107.127,23.397,232.144,140.063,352.011
					c104.51,107.376,250.168,193.936,380.139,225.898c43.096,10.598,86.191,15.657,128.29,15.661
					c212.33,0.017,400.415-128.572,448.435-323.833c27.85-113.257,4.958-231.832-64.455-333.879
					c-69.513-102.188-177.324-175.564-303.587-206.612C2048.875,604.507,1991.31,598.295,1931.698,598.295z"/>
			</g>
			<path style="opacity:0.5;fill:#EDE9CF;" d="M1511.169,1147.406c31.948,32.362,68.02,60.834,106.545,84.959
				c32.267,20.207,67.253,38.808,104.464,47.922c14.049,3.44,28.062,4.947,42.457,3.158c15.327-1.906,32.746-6.881,41.947-20.336
				c7.885-11.53,7.868-26.298,5.236-39.519c-3.544-17.795-11.262-34.646-19.892-50.495c-19.454-35.739-44.757-68.479-71.782-98.785
				c-9.871-11.073-20.048-21.97-31.003-31.984c-7.159-6.546-15.076-12.202-23.007-17.766c-13.452-9.438-27.449-18.146-42.085-25.634
				c-28.666-14.667-61.006-25.324-93.582-22.131c-28.888,2.83-57.332,17.909-72.754,43.021
				c-7.037,11.459-11.021,24.242-12.71,37.401C1460.507,1091.184,1485.182,1121.082,1511.169,1147.406z"/>
			<path style="opacity:0.5;fill:#EDE9CF;" d="M1829.697,1318.089c1.67,3.163,3.856,6.098,6.127,8.617
				c7.728,8.575,17.626,15.081,27.873,20.25c10.92,5.51,22.719,9.596,34.846,11.371c9.309,1.363,20.15,1.537,28.561-3.318
				c8.866-5.119,11.288-15,10.264-24.634c-1.235-11.624-7.461-21.813-17.395-28.005c-19.972-12.449-48.419-10.507-69.206-1.14
				C1842.611,1304.905,1834.45,1310.32,1829.697,1318.089z"/>
			<path style="opacity:0.38;fill:#D6D4BD;" d="M1367.276,886.885c-58.189,236.633,260.145,518.339,523.314,583.052
				c263.17,64.715,523.682-74.651,581.871-311.284c58.188-236.629-107.981-480.919-371.152-545.634
				C1838.14,548.306,1425.464,650.256,1367.276,886.885z M1798.627,889.939c25.266,8.377,50.218,17.781,74.635,28.387
				c26.297,11.425,52.007,24.401,76.831,38.738c34.317,19.822,67.134,42.522,96.925,68.7c29.676,26.078,56.554,55.898,76.921,89.868
				c20.011,33.379,33.213,70.755,36.257,109.671c3.183,40.695-5.671,81.718-30.704,114.565
				c-23.114,30.329-57.387,50.201-93.487,61.091c-37.881,11.426-78.25,13.66-117.396,8.741
				c-40.529-5.094-80.282-15.714-118.618-29.68c-41.387-15.077-81.313-34.086-119.458-56.083
				c-38.976-22.479-76.164-48.109-111.022-76.559c-33.865-27.639-65.596-58.039-93.888-91.387
				c-13.595-16.025-26.404-32.765-38.135-50.217c-8.366-11.064-15.714-22.818-21.627-35.396c-2.56-4.662-5.046-9.367-7.43-14.127
				c-0.636-1.27-0.306-2.493,0.434-3.343c-10.634-32.707-9.251-68.401,2.745-100.725c9.344-25.183,24.946-47.313,46.343-63.668
				c20.894-15.969,46.041-25.622,71.634-30.94c28.63-5.948,58.128-6.939,87.255-5.283c31.287,1.779,62.381,6.578,92.991,13.202
				C1739.85,871.989,1769.479,880.275,1798.627,889.939z"/>
			<path style="opacity:0.38;fill:#D6D4BD;" d="M1547.617,683.491c8.804-1.326,17.651-2.52,26.57-3.52
				c92.904-10.415,187.237-13.699,280.034-0.406c71.596,10.257,142.592,30.688,207.905,61.928
				c59.988,28.695,115.75,67.784,158.958,118.694c45.27,53.338,74.492,118.026,86.064,186.939
				c10.783,64.221,2.541,131.031-20.949,191.609c-23.51,60.625-62.39,115.817-114.874,154.719
				c-57.777,42.826-129.568,59.094-200.391,62.394c-56.098,2.616-112.281-3.255-167.366-14.298
				c29.29,11.791,58.482,21.369,87.024,28.388c263.17,64.715,523.682-74.651,581.871-311.284
				c58.188-236.629-107.981-480.919-371.152-545.634C1933.996,571.877,1706.277,598.124,1547.617,683.491z"/>
		</g>
	</g>
</g>
</svg>
