<svg width="88" height="71" viewBox="0 0 88 71" fill="none" xmlns="http://www.w3.org/2000/svg">
<path d="M85.0438 15.5798C83.257 11.2643 80.2305 7.57567 76.3471 4.98045C72.4637 2.38522 67.8978 1 63.2271 1C58.5563 1 53.9905 2.38522 50.1071 4.98045C46.2237 7.57567 43.1972 11.2643 41.4104 15.5798" stroke="#345B63" stroke-width="2" stroke-linecap="round"/>
<path d="M75.5891 20.9917C74.8065 18.3197 73.1791 15.9734 70.9508 14.3041C68.7225 12.6349 66.0133 11.7327 63.2291 11.7327C60.445 11.7327 57.7357 12.6349 55.5074 14.3041C53.2791 15.9734 51.6518 18.3197 50.8691 20.9917" stroke="#345B63" stroke-width="2" stroke-linecap="round"/>
<path d="M22.4583 52.5009C22.4583 53.6391 22.0062 54.7307 21.2013 55.5356C20.3965 56.3404 19.3049 56.7926 18.1667 56.7926C17.0284 56.7926 15.9368 56.3404 15.132 55.5356C14.3272 54.7307 13.875 53.6391 13.875 52.5009C13.875 51.3627 14.3272 50.2711 15.132 49.4662C15.9368 48.6614 17.0284 48.2092 18.1667 48.2092C19.3049 48.2092 20.3965 48.6614 21.2013 49.4662C22.0062 50.2711 22.4583 51.3627 22.4583 52.5009ZM35.3333 52.5009C35.3333 53.6391 34.8812 54.7307 34.0763 55.5356C33.2715 56.3404 32.1799 56.7926 31.0417 56.7926C29.9034 56.7926 28.8118 56.3404 28.007 55.5356C27.2022 54.7307 26.75 53.6391 26.75 52.5009C26.75 51.3627 27.2022 50.2711 28.007 49.4662C28.8118 48.6614 29.9034 48.2092 31.0417 48.2092C32.1799 48.2092 33.2715 48.6614 34.0763 49.4662C34.8812 50.2711 35.3333 51.3627 35.3333 52.5009Z" fill="#345B63"/>
<path d="M48.2083 69.6676H18.1667C10.0726 69.6676 6.02983 69.6676 3.51492 67.1526C1 64.6377 1 60.595 1 52.5009C1 44.4068 1 40.3641 3.51492 37.8491C6.02983 35.3342 10.0726 35.3342 18.1667 35.3342H69.6667C77.7608 35.3342 81.8035 35.3342 84.3184 37.8491C86.8333 40.3641 86.8333 44.4068 86.8333 52.5009C86.8333 60.595 86.8333 64.6377 84.3184 67.1526C81.8035 69.6676 77.7608 69.6676 69.6667 69.6676H65.375M63.2292 35.3342V22.4592" stroke="#345B63" stroke-width="2" stroke-linecap="round"/>
</svg>
